<svg width="247" height="471" viewBox="0 0 247 471" fill="none" xmlns="http://www.w3.org/2000/svg">
<g clip-path="url(#clip0_1422_10295)">
<path d="M230.764 331.152C222.04 336.88 208.57 343.081 208.438 343.136L208.314 342.803C208.491 345.129 208.667 347.437 208.853 349.68C210.515 370.264 208.473 402.026 208.438 402.601L210.117 403.991V404.316C210.117 405.66 210.196 437.246 216.711 451.426C216.826 451.583 216.887 451.676 216.905 451.695C221.634 457.191 223.296 462.168 223.366 462.381L223.437 462.594L221.183 470.426H126.175L126.096 469.87C125.194 463.512 128.898 453.307 131.364 448.97C131.381 448.905 131.39 448.84 131.426 448.784C131.549 448.562 131.682 448.349 131.814 448.126C133.909 441.342 133.573 406.54 133.573 406.179V405.743L133.936 405.567C133.945 405.567 134.068 405.502 134.289 405.4C134.086 403.565 133.07 394.528 131.947 388.652C130.992 383.61 125.963 378.652 123.939 376.835C122.463 378.105 116.948 383.166 115.905 388.652C114.791 394.528 113.766 403.565 113.562 405.4C113.783 405.511 113.907 405.567 113.916 405.567L114.287 405.743V406.179C114.287 406.531 113.943 441.157 116.02 448.071C116.152 448.312 116.302 448.534 116.435 448.784C116.479 448.859 116.506 448.942 116.515 449.025C118.981 453.4 122.64 463.539 121.747 469.87L121.668 470.426H26.6599L24.406 462.594L24.4767 462.381C24.5475 462.168 26.2356 457.126 31.0263 451.583C31.0439 451.556 31.0793 451.519 31.1058 451.472C37.6376 437.31 37.7172 405.66 37.7172 404.316V403.991L39.4142 402.62H39.3965C39.3789 402.304 37.3106 370.357 38.9723 349.689C39.1579 347.446 39.3347 345.138 39.5114 342.812L39.3877 343.145C39.2551 343.081 25.7849 336.88 17.061 331.162C7.06441 324.609 -1.73014 308.992 1.63742 292.967C5.21711 275.942 26.7041 260.594 33.7663 255.552L33.9165 255.44C40.5102 251.158 45.9372 248.99 47.5459 248.387C47.979 247.006 48.4297 245.774 48.8982 244.726L49.0573 244.374H49.4197C49.4816 244.365 50.5952 244.337 52.5751 244.291C48.6772 240.926 33.3155 225.968 25.9882 194.558C25.7584 194.576 25.5286 194.604 25.2987 194.604C23.1863 194.604 21.0738 193.659 19.1381 191.833C12.456 185.53 8.30183 169.431 7.4268 146.502C6.62247 125.509 15.2314 85.2113 20.4286 63.0602C27.4377 33.1888 35.2865 6.18126 37.1073 3.72519C40.6782 -1.07574 46.9979 0.750092 47.263 0.833506L47.3514 0.870578L58.0463 6.2276L57.9756 6.71882C57.8784 7.37686 48.6772 71.0402 48.1027 87.3429C65.8244 68.3802 91.7573 58.2871 123.4 58.074C123.568 58.0647 123.736 58.074 123.913 58.074C124.081 58.074 124.249 58.074 124.425 58.074C156.068 58.2964 182.001 68.3895 199.723 87.3522C199.139 71.0494 189.947 7.38613 189.85 6.72809L189.779 6.23687L200.571 0.842774C200.836 0.75936 207.156 -1.06648 210.727 3.73445C212.548 6.19053 220.396 33.1981 227.406 63.0602C232.603 85.2113 241.212 125.5 240.407 146.502C239.532 169.441 235.369 185.54 228.696 191.833C226.76 193.659 224.648 194.604 222.535 194.604C222.306 194.604 222.076 194.585 221.846 194.558C214.519 225.977 199.157 240.926 195.259 244.291C197.239 244.337 198.353 244.365 198.414 244.365H198.777L198.936 244.726C199.413 245.774 199.864 246.997 200.288 248.387C201.897 248.99 207.324 251.159 213.891 255.422L214.059 255.542C221.121 260.584 242.608 275.932 246.188 292.967C249.555 308.992 240.761 324.609 230.764 331.162V331.152Z" fill="#2EC1DD"/>
<path d="M202.586 1.80663C232.072 94.7297 225.682 146.409 225.39 148.569C225.373 148.708 225.311 148.828 225.222 148.921C225.735 154.954 225.85 161.164 225.532 167.504C225.054 177.087 223.817 185.632 222.12 193.251C224.073 193.38 226.071 192.556 227.909 190.822C231.63 187.31 238.047 176.883 239.205 146.428C240.584 110.291 213.06 8.95242 209.79 4.55002C207.748 1.80663 204.54 1.60273 202.577 1.79736L202.586 1.80663ZM224.038 172.147C220.361 166.744 208.349 165.001 205.689 164.807C205.689 164.871 205.689 164.936 205.689 165.001C206.52 211.871 178.183 238.507 171.881 243.837C181.479 243.985 189.249 244.152 193.845 244.254L193.659 243.957C193.933 243.753 220.008 223.845 224.038 172.147ZM200.942 88.3809C200.942 88.4736 200.925 88.557 200.898 88.6404C201.287 89.0761 201.685 89.5117 202.074 89.9658C214.245 104.128 221.961 122.636 224.648 143.536C225.62 128.568 226.115 79.8264 201.375 2.00126C201.154 2.0476 200.995 2.08468 200.925 2.10321L191.105 7.02463C191.989 13.188 200.774 74.5528 200.951 88.3902L200.942 88.3809ZM46.6178 90.8648C30.1866 109.985 21.9754 137.178 23.4868 167.448C23.531 168.264 23.5929 169.042 23.6459 169.848C25.6877 168.069 31.1147 164.454 42.3399 163.509C42.3664 163.509 42.3929 163.518 42.4194 163.518C42.8967 125.38 58.2673 106.741 63.9064 104.257C68.0253 102.441 92.376 96.055 123.745 95.9716C123.745 95.9716 123.754 95.9716 123.762 95.9716C123.86 95.9716 123.957 95.9716 124.054 95.9716C124.151 95.9716 124.249 95.9716 124.346 95.9716C124.346 95.9716 124.355 95.9716 124.363 95.9716C155.732 96.055 180.083 102.441 184.202 104.257C189.841 106.741 205.194 125.361 205.689 163.5C208.332 163.667 219.451 165.159 224.179 170.321C224.241 169.367 224.321 168.421 224.365 167.439C225.876 137.169 217.656 109.976 201.234 90.8556C183.627 70.3728 156.908 59.5012 123.939 59.39C90.9706 59.5012 64.2511 70.3728 46.6443 90.8556L46.6178 90.8648ZM46.4499 1.992C21.7191 79.8171 22.214 128.559 23.1775 143.527C25.8644 122.636 33.5807 104.118 45.7516 89.9565C46.1405 89.5117 46.5294 89.076 46.9272 88.6312C46.9007 88.5478 46.883 88.4644 46.883 88.3717C47.0597 74.5342 55.8455 13.1695 56.7293 7.00609L46.9095 2.08468C46.8388 2.06614 46.6797 2.02907 46.4587 1.98273L46.4499 1.992ZM25.7053 193.26C24.2469 186.717 23.1421 179.487 22.5499 171.507C22.5057 171.378 22.4969 171.248 22.5234 171.109C22.435 169.923 22.3466 168.736 22.2936 167.513C21.9754 161.173 22.0903 154.964 22.6029 148.93C22.5234 148.837 22.4527 148.717 22.435 148.578C22.1522 146.418 15.7529 94.7389 45.239 1.8159C43.2768 1.63053 40.0595 1.83444 38.0266 4.56856C34.7562 8.97095 7.2412 110.31 8.62004 146.446C9.77792 176.892 16.1948 187.328 19.916 190.841C21.7544 192.574 23.752 193.399 25.7053 193.269V193.26ZM54.1661 243.957L53.9893 244.254C58.6208 244.152 66.4873 243.985 76.2011 243.837C69.8814 238.489 41.562 211.861 42.3929 164.992C42.3929 164.927 42.3929 164.871 42.3929 164.816C29.8242 165.882 24.7508 170.432 23.7431 171.48C27.6057 223.725 53.8921 243.762 54.1661 243.966V243.957Z" fill="#BEE4EF"/>
<path d="M197.469 85.0258C198.229 86.24 199.033 87.3707 199.882 88.3809C216.012 107.687 222.323 132.247 222.323 132.247C222.323 132.247 222.606 111.394 217.135 76.7957C211.664 42.1974 200.023 5.73633 200.023 5.73633C200.023 5.73633 192.873 7.12656 190.769 8.51679C190.769 8.51679 190.521 8.56313 190.133 8.63728C191.679 19.4347 199.21 72.6342 199.731 87.3336C198.998 86.5458 198.238 85.7766 197.469 85.0166V85.0258Z" fill="#2EC1DD"/>
<path d="M231.851 95.7956C229.606 85.9064 223.808 74.1729 223.808 74.1729C223.808 74.1729 228.113 98.678 228.67 120.514C229.226 142.35 228.298 153.157 225.399 160.367C225.399 160.367 225.753 164.946 224.913 171.73C221.89 167.476 215.88 165.743 211.363 165.103C211.54 162.425 211.522 156.91 210.161 146.159C208.013 129.17 197.822 110.421 194.543 107.538C191.273 104.656 185.192 103.729 180.048 103.108C180.048 103.108 177.246 121.441 178.642 127.613C180.048 133.795 195.657 165.307 197.062 166.336C197.76 166.846 201.243 167.179 204.566 167.355C202.012 174.816 196.125 196.902 192.996 209.025C189.213 223.697 138.205 267.257 172.844 246.867C207.483 226.477 210.17 170.247 210.17 170.247C210.17 170.247 215.571 169.098 224.4 175.502C223.375 183.158 221.82 194.539 221.82 194.539C222.049 194.558 222.279 194.585 222.509 194.585C224.621 194.585 226.734 193.64 228.67 191.814C231.905 188.765 234.547 183.408 236.518 176.086C237.013 173.055 237.535 169.496 238.1 165.298C241.282 141.608 234.079 105.675 231.834 95.7863L231.851 95.7956Z" fill="#2EC1DD"/>
<path d="M162.759 85.9158C160.611 88.2884 143.871 84.989 143.499 84.5812C143.128 84.1734 138.452 58.936 138.452 58.936L134.431 59.1399C135.651 62.5414 140.415 85.9158 141.537 87.0465C142.66 88.1772 152.948 89.6231 156.404 90.0309C159.86 90.4387 163.227 89.3079 164.262 89.206C165.181 89.1133 171.589 71.8559 172.968 68.1023C171.28 67.3145 169.556 66.573 167.806 65.8872C167.629 66.9438 164.845 83.6173 162.768 85.9158H162.759Z" fill="#2EC1DD"/>
<path d="M50.3566 85.0258C49.5964 86.24 48.7921 87.3707 47.9436 88.3809C31.8129 107.687 25.502 132.247 25.502 132.247C25.502 132.247 25.2192 111.394 30.6903 76.7957C36.1704 42.1975 47.811 5.74561 47.811 5.74561C47.811 5.74561 54.9615 7.13584 57.0652 8.52607C57.0652 8.52607 57.3126 8.57241 57.7015 8.64655C56.1548 19.444 48.6242 72.6435 48.1027 87.3429C48.8363 86.5551 49.5964 85.7858 50.3654 85.0258H50.3566Z" fill="#2EC1DD"/>
<path d="M15.9739 95.7956C18.2189 85.9064 24.0171 74.1729 24.0171 74.1729C24.0171 74.1729 19.7127 98.678 19.1558 120.514C18.599 142.35 19.5271 153.157 22.4262 160.367C22.4262 160.367 22.0726 164.946 22.9123 171.73C25.9351 167.476 31.9455 165.743 36.4621 165.103C36.2853 162.425 36.303 156.91 37.6642 146.159C39.812 129.17 50.0031 110.421 53.2822 107.538C56.5526 104.656 62.6336 103.729 67.7778 103.108C67.7778 103.108 70.5797 121.441 69.1831 127.613C67.7778 133.795 52.1685 165.307 50.7632 166.336C50.0649 166.846 46.5825 167.179 43.2591 167.355C45.8135 174.816 51.7001 196.902 54.829 209.025C58.612 223.697 109.62 267.257 74.9814 246.867C40.3423 226.477 37.6553 170.247 37.6553 170.247C37.6553 170.247 32.2548 169.098 23.4249 175.502C24.4502 183.158 26.0059 194.539 26.0059 194.539C25.776 194.558 25.5462 194.585 25.3164 194.585C23.204 194.585 21.0915 193.64 19.1558 191.814C15.9208 188.765 13.2781 183.408 11.307 176.086C10.8121 173.055 10.2906 169.496 9.72488 165.298C6.54294 141.608 13.7465 105.675 15.9916 95.7863L15.9739 95.7956Z" fill="#2EC1DD"/>
<path d="M85.0664 85.9158C87.2142 88.2884 103.955 84.989 104.326 84.5812C104.697 84.1734 109.373 58.936 109.373 58.936L113.395 59.1399C112.175 62.5414 107.411 85.9158 106.288 87.0465C105.166 88.1772 94.8774 89.6231 91.4215 90.0309C87.9655 90.4387 84.598 89.3079 83.5638 89.206C82.6446 89.1133 76.2365 71.8559 74.8577 68.1023C76.5459 67.3145 78.2694 66.573 80.0195 65.8872C80.1963 66.9438 82.9805 83.6173 85.0576 85.9158H85.0664Z" fill="#2EC1DD"/>
<path d="M125.132 245.894C141.793 245.894 158.507 246.079 172.066 246.283C172.084 246.265 172.101 246.237 172.119 246.228C172.49 245.95 209.207 217.978 208.243 163.824C208.146 120.199 190.071 103.071 186.517 101.514C182.24 99.6326 156.846 92.9873 124.036 92.9409C91.2358 92.978 65.8332 99.6233 61.5553 101.514C58.0021 103.08 39.9357 120.208 39.8385 163.815C38.875 217.978 75.5912 245.95 75.9624 246.228C75.9801 246.246 75.9978 246.265 76.0154 246.283C89.5299 246.079 106.129 245.894 122.684 245.894H125.141H125.132Z" fill="white"/>
<path d="M131.938 388.652C133.052 394.528 134.077 403.564 134.281 405.4C134.06 405.511 133.936 405.566 133.927 405.566L133.556 405.742V406.178C133.556 406.252 133.574 407.828 133.582 410.312C133.812 410.479 134.033 410.59 134.245 410.599C138.178 410.831 143.782 406.122 143.782 406.122C141.396 395.306 139.434 382.489 141.679 376.464C143.924 370.44 162.573 358.855 167.488 357.464C172.393 356.074 172.818 355.611 172.818 355.611C172.818 355.611 164.403 355.768 151.498 362.562C138.594 369.355 136.349 374.147 134.245 375.537C132.84 376.464 128.871 373.813 126.388 371.951V332.44C126.388 332.44 173.233 330.892 177.157 329.66C181.082 328.427 187.534 319.159 192.581 316.378C197.628 313.598 200.439 310.817 200.439 310.817C200.439 310.817 201.278 315.757 202.118 325.952C202.958 336.148 205.768 391.136 202.675 406.586C202.675 406.586 203.364 417.356 210.55 417.485C210.117 410.275 210.099 404.862 210.099 404.324V404L208.42 402.61C208.455 402.044 210.497 370.273 208.835 349.688C208.65 347.445 208.473 345.138 208.296 342.811L208.42 343.145C208.553 343.08 222.023 336.88 230.747 331.161C240.743 324.609 249.538 308.992 246.17 292.967C242.591 275.941 221.104 260.593 214.041 255.542L213.874 255.421C207.297 251.158 201.87 248.98 200.271 248.387C199.838 247.006 199.387 245.773 198.918 244.726L198.839 244.55C198.167 244.717 197.513 244.846 196.885 244.911C186.04 246.144 201.42 295.219 196.93 295.831C192.44 296.452 123.93 320.855 123.93 320.855V376.826C125.954 378.651 130.975 383.601 131.938 388.643V388.652Z" fill="#0478B8"/>
<path d="M17.0699 331.152C25.5639 336.722 38.548 342.746 39.3524 343.117L39.4673 342.802C39.4673 342.858 39.4673 342.913 39.4584 342.969L39.5203 342.802C39.3435 345.128 39.1668 347.436 38.9811 349.679C37.3106 370.347 39.3789 402.295 39.4054 402.61H39.4231L37.726 403.982V404.306C37.726 404.843 37.7172 410.265 37.2753 417.467C44.4081 417.281 45.1064 406.567 45.1064 406.567C42.0217 391.117 44.8236 336.129 45.6632 325.934C46.5029 315.739 47.3426 310.799 47.3426 310.799C47.3426 310.799 50.1445 313.579 55.2002 316.36C60.2472 319.14 66.6995 328.409 70.6239 329.641C74.5483 330.874 121.394 332.422 121.394 332.422V371.932C118.91 373.795 114.95 376.455 113.536 375.519C111.432 374.129 109.187 369.337 96.2827 362.543C83.3782 355.75 74.9637 355.592 74.9637 355.592C74.9637 355.592 75.3879 356.056 80.2934 357.446C85.1989 358.836 103.858 370.421 106.103 376.446C108.348 382.47 106.385 395.288 103.999 406.104C103.999 406.104 109.603 410.812 113.536 410.58C113.748 410.571 113.969 410.46 114.199 410.293C114.199 407.809 114.217 406.234 114.217 406.16V405.724L113.854 405.548C113.845 405.548 113.722 405.483 113.501 405.381C113.704 403.546 114.72 394.509 115.843 388.633C116.797 383.591 121.827 378.633 123.851 376.816V320.846C123.851 320.846 55.3417 296.442 50.8516 295.822C46.3615 295.201 61.7409 246.135 50.8958 244.902C50.2859 244.828 49.6407 244.707 48.9866 244.55L48.9159 244.717C48.4386 245.764 47.9878 246.987 47.5636 248.378C45.9549 248.98 40.5279 251.149 33.9342 255.431L33.784 255.542C26.7218 260.584 5.23481 275.932 1.65512 292.958C-1.71244 308.982 7.08211 324.599 17.0787 331.152H17.0699Z" fill="#0478B8"/>
<path d="M240.496 305.21C240.284 308.751 239.364 312.31 237.429 315.136C237.084 315.637 236.704 316.119 236.209 316.425C235.714 316.731 235.078 316.833 234.574 316.545C235.714 312.866 236.041 308.88 235.502 305.034C235.219 302.977 236.73 302.013 237.994 300.752C239.391 299.353 240.098 301.494 240.407 303.014C240.558 303.727 240.54 304.478 240.496 305.21ZM234.936 285.33C234.795 284.802 234.503 284.338 234.194 283.903C231.887 280.548 229.032 277.656 225.806 275.394C224.957 274.801 223.128 273.578 222.244 274.625C221.501 275.506 221.475 278.11 221.324 279.259C221.271 279.658 221.227 280.075 221.342 280.464C221.475 280.881 221.775 281.187 222.076 281.474C225.178 284.403 229.306 285.96 231.975 289.362C232.17 289.612 232.391 289.881 232.682 289.899C232.992 289.918 233.248 289.649 233.451 289.399C234.379 288.268 235.307 286.804 234.927 285.339L234.936 285.33ZM12.1997 305.034C12.4825 302.977 10.9711 302.013 9.70718 300.752C8.31066 299.353 7.60356 301.494 7.2942 303.014C7.14394 303.727 7.16162 304.478 7.20582 305.21C7.41795 308.751 8.33718 312.31 10.2729 315.136C10.6176 315.637 10.9976 316.119 11.4926 316.425C11.9876 316.731 12.624 316.833 13.1278 316.545C11.9876 312.866 11.6605 308.88 12.1997 305.034ZM25.449 274.625C24.5651 273.578 22.7355 274.801 21.887 275.394C18.6697 277.656 15.8148 280.557 13.499 283.903C13.1985 284.338 12.898 284.802 12.7565 285.33C12.3765 286.794 13.3046 288.259 14.2326 289.389C14.4359 289.64 14.6922 289.918 15.0016 289.89C15.2933 289.871 15.5142 289.593 15.7087 289.352C18.378 285.942 22.5057 284.394 25.6081 281.465C25.9086 281.178 26.2091 280.863 26.3417 280.455C26.4566 280.075 26.4124 279.658 26.3594 279.25C26.2091 278.11 26.1826 275.496 25.4402 274.616L25.449 274.625Z" fill="white"/>
<path d="M206.21 302.375C206.025 302.319 205.821 302.347 205.671 302.495C205.645 302.514 205.636 302.542 205.618 302.569C203.161 302.922 197.292 304.256 190.946 309.206C183.503 314.998 175.619 322.292 174.382 323.451H166.259V277.499H175.389C176.194 277.499 176.848 276.776 176.848 275.896V269.908C176.848 269.028 176.194 268.305 175.389 268.305H166.347V245.07C183.185 245.31 195.745 245.607 198.008 245.663C203.382 258.128 205.857 296.517 206.21 302.375ZM122.746 244.745C88.372 244.745 53.733 245.57 49.8263 245.663C44.4523 258.128 41.9775 296.517 41.6239 302.375C41.8095 302.319 42.0128 302.347 42.1631 302.495C42.1896 302.514 42.1984 302.542 42.2161 302.569C44.6733 302.922 50.5422 304.256 56.8884 309.206C64.3306 314.998 72.2148 322.292 73.4522 323.451H165.057V277.499H160.691C159.886 277.499 159.232 276.776 159.232 275.896V269.908C159.232 269.028 159.886 268.305 160.691 268.305H165.145V245.051C153.142 244.884 139.089 244.745 125.079 244.745H122.737H122.746Z" fill="#1455A2"/>
<path d="M123.091 253.512C111.521 253.818 102.266 263.782 101.356 275.524C100.446 287.267 99.606 308.037 123.798 311.513C147.919 309.817 147.777 282.244 146.027 272.28C144.277 262.317 134.669 253.207 123.099 253.512H123.091Z" fill="#1A2752"/>
<path d="M123.303 258.935C114.871 259.157 108.127 266.423 107.464 274.969C106.801 283.523 106.182 298.658 123.815 301.188C141.387 299.946 141.29 279.862 140.008 272.605C138.726 265.348 131.735 258.703 123.303 258.935Z" fill="#2EC1DD"/>
<path d="M175.389 276.182C175.531 276.182 175.655 276.052 175.655 275.895V269.907C175.655 269.75 175.54 269.62 175.389 269.62H160.699C160.558 269.62 160.434 269.75 160.434 269.907V275.895C160.434 276.052 160.549 276.182 160.699 276.182H175.389Z" fill="#2EC1DD"/>
<path d="M104.158 292.365C104.998 289.047 106.403 288.889 106.544 286.878C106.686 284.867 107.101 275.061 107.384 272.744C107.667 270.427 107.738 269.269 107.738 269.269C107.738 269.269 104.865 269.658 103.813 272.207C102.761 274.755 103.256 287.963 103.53 289.89C103.804 291.818 104.158 292.365 104.158 292.365Z" fill="white"/>
<path d="M104.794 269.195C106.615 267.804 108.021 267.804 109.002 267.109C109.983 266.414 112.157 262.169 118.185 259.62C124.213 257.072 132.354 260.705 132.354 260.705C132.354 260.705 135.297 258.694 135.014 258.23C134.731 257.767 126.812 252.363 116.992 256.219C107.172 260.075 104.794 269.195 104.794 269.195Z" fill="white"/>
<path d="M103.46 287.499C103.354 290.085 103.884 295.961 106.156 299.743C108.427 303.524 110.363 304.497 109.7 303.607C109.037 302.718 105.457 296.925 105.351 293.524C105.245 290.122 105.943 289.158 106.085 288.269C106.226 287.379 105.139 285.794 104.75 285.794C104.361 285.794 103.451 287.49 103.451 287.49L103.46 287.499Z" fill="white"/>
<path d="M134.484 258.647C133.644 259.537 134.024 260.426 134.837 261.585C135.65 262.744 137.675 264.903 138.028 265.756C138.382 266.608 138.417 267.146 138.028 266.72C137.639 266.293 135.571 263.939 134.139 262.428C132.707 260.918 131.788 260.612 129.472 259.574C127.156 258.536 130.418 258.063 132.071 258.258C133.724 258.452 134.493 258.647 134.493 258.647H134.484Z" fill="white"/>
<path d="M115.056 448.988C116.718 451.584 119.865 459.174 120.554 465.449C112.201 465.449 32.6172 465.495 31.7245 465.449C30.8849 465.402 27.7206 465.514 26.0854 464.068L25.6788 462.64C26.0412 461.667 27.7913 457.265 31.8748 452.538C31.8748 452.529 31.8925 452.52 31.9013 452.51C31.9013 452.51 31.919 452.492 31.9367 452.464C31.9632 452.427 31.9897 452.399 32.0251 452.362L32.1223 452.204C33.4923 450.323 40.961 440.388 50.5864 434.354C60.583 428.042 71.4547 428.765 71.5696 428.774C71.9143 428.802 72.1795 428.524 72.206 428.163C72.2325 427.801 71.9762 427.486 71.6492 427.468C71.1895 427.431 60.3179 426.708 49.9942 433.214C42.9232 437.644 36.9924 444.141 33.7133 448.136C38.6099 433.39 38.9016 408.922 38.9193 404.659L40.8461 403.064C42.1808 402.555 56.8796 396.762 67.9546 382.739H83.5107C84.7835 384.185 92.6058 392.953 98.9432 397.865C104.962 402.527 111.485 405.826 113.085 406.614C113.05 410.368 112.9 434.966 114.278 445.3C106.951 434.613 95.0276 428.487 80.2316 427.977C80.2316 427.977 80.2227 427.977 80.2139 427.977C79.8957 427.977 79.6305 428.255 79.6217 428.617C79.6129 428.978 79.8692 429.284 80.1962 429.293C95.7701 429.831 108.056 436.708 114.941 448.655C114.959 448.72 114.977 448.794 115.003 448.849L115.074 448.988H115.056ZM215.818 452.362L215.721 452.204C215.721 452.204 215.703 452.167 215.694 452.149C214.245 450.165 206.82 440.332 197.265 434.354C187.269 428.042 176.397 428.765 176.282 428.774C175.929 428.793 175.672 428.524 175.646 428.163C175.619 427.801 175.876 427.486 176.203 427.468C176.662 427.44 187.534 426.708 197.858 433.214C204.911 437.635 210.824 444.104 214.112 448.108C209.224 433.362 208.933 408.922 208.924 404.659L206.997 403.064C205.662 402.555 190.963 396.762 179.888 382.739H164.332C163.059 384.185 155.237 392.953 148.9 397.865C142.881 402.527 136.358 405.826 134.758 406.614C134.793 410.368 134.943 435.012 133.565 445.337C140.883 434.632 152.815 428.496 167.629 427.987C167.629 427.987 167.638 427.987 167.647 427.987C167.965 427.987 168.23 428.265 168.239 428.626C168.248 428.988 167.991 429.293 167.664 429.303C152.064 429.84 139.761 436.736 132.884 448.72C132.866 448.766 132.857 448.822 132.84 448.859L132.769 448.998C131.107 451.593 127.961 459.183 127.271 465.458C136.252 465.458 215.093 465.504 215.977 465.458C216.852 465.412 220.202 465.541 221.784 463.929L222.155 462.65C221.793 461.658 219.99 457.154 215.809 452.371L215.818 452.362Z" fill="#243C78"/>
<path d="M35.9317 446.059C35.9317 446.059 36.8421 444.206 37.4078 440.804C37.9647 437.403 39.4407 427.365 39.5821 425.512C39.7236 423.658 41.5443 423.732 41.9686 421.647C42.3929 419.562 42.8083 409.598 42.7376 408.134C42.7376 406.744 44.5495 405.437 44.9119 407.133C45.1859 408.421 44.5584 418.181 44.2844 421.035C44.0015 423.89 41.8979 425.669 41.6858 426.207C41.4736 426.744 38.9546 442.964 38.1768 444.206C37.4078 445.438 35.9317 446.059 35.9317 446.059ZM65.5239 430.174C61.3166 430.48 54.3075 432.954 45.6986 439.544C37.0985 446.134 33.6337 453.752 33.6337 453.752C33.6337 453.752 44.576 443.761 52.142 441.184C59.7168 438.608 67.0088 435.521 68.3169 433.251C69.625 430.989 69.7223 429.849 65.515 430.164L65.5239 430.174ZM81.0447 431.304C76.2806 430.683 73.5671 432.435 77.2087 433.362C80.8591 434.289 87.3025 434.595 85.9944 433.464C84.6863 432.333 81.0359 431.304 81.0359 431.304H81.0447ZM110.893 426.439C110.61 424.817 109.912 412.536 109.7 410.84C109.488 409.144 107.596 410.219 107.596 410.219C107.596 410.219 108.021 423.584 108.79 425.28C109.559 426.976 111.176 428.061 110.893 426.439ZM80.3199 385.89C82.2114 385.964 82.4236 383.499 82.4236 383.499L68.75 383.657C68.75 383.657 68.0517 385.436 70.3587 385.974C72.6656 386.511 78.4196 385.816 80.3199 385.899V385.89Z" fill="white"/>
<path d="M209.702 444.206C208.933 442.974 206.405 426.754 206.193 426.207C205.98 425.67 203.877 423.89 203.594 421.036C203.311 418.181 202.684 408.422 202.966 407.133C203.329 405.447 205.141 406.744 205.141 408.134C205.07 409.599 205.494 419.562 205.91 421.647C206.325 423.733 208.155 423.659 208.296 425.512C208.438 427.366 209.905 437.403 210.47 440.805C211.027 444.206 211.947 446.06 211.947 446.06C211.947 446.06 210.47 445.439 209.702 444.206ZM179.553 433.261C180.861 435.522 188.153 438.618 195.727 441.194C203.302 443.771 214.236 453.762 214.236 453.762C214.236 453.762 210.78 446.143 202.171 439.554C193.571 432.964 186.553 430.489 182.346 430.183C178.138 429.878 178.236 431.008 179.544 433.27L179.553 433.261ZM161.884 433.464C160.576 434.595 167.028 434.289 170.67 433.362C174.32 432.436 171.607 430.684 166.834 431.305C166.834 431.305 163.183 432.334 161.875 433.464H161.884ZM139.098 425.281C139.867 423.584 140.291 410.22 140.291 410.22C140.291 410.22 138.399 409.135 138.187 410.841C137.975 412.537 137.277 424.817 136.994 426.439C136.711 428.061 138.329 426.977 139.098 425.281ZM177.528 385.965C179.844 385.427 179.137 383.648 179.137 383.648L165.464 383.49C165.464 383.49 165.676 385.965 167.567 385.881C169.459 385.807 175.213 386.502 177.528 385.956V385.965Z" fill="white"/>
<path d="M124.16 253.587V244.087" stroke="#1A2752" stroke-width="1.42" stroke-miterlimit="10"/>
<path d="M124.16 324.183V309.279" stroke="#1A2752" stroke-width="1.42" stroke-miterlimit="10"/>
<path d="M125.088 243.429C141.007 243.429 156.978 243.605 169.927 243.799C169.945 243.781 169.954 243.762 169.98 243.744C170.334 243.484 205.415 216.745 204.495 165.01C204.398 123.331 187.136 106.964 183.742 105.471C179.659 103.673 155.387 97.3247 124.045 97.2783C92.703 97.3154 68.4318 103.664 64.3483 105.471C60.9542 106.964 43.6921 123.331 43.5949 165.001C42.6757 216.755 77.7567 243.484 78.1102 243.753C78.1279 243.772 78.1367 243.79 78.1544 243.809C91.0678 243.614 106.933 243.438 122.746 243.438H125.088V243.429Z" fill="#1A2752"/>
<path d="M70.1907 354.036C88.5842 357.122 101.471 362.979 109.603 371.932C109.833 372.192 109.833 372.609 109.603 372.859C109.488 372.989 109.338 373.054 109.178 373.054C109.019 373.054 108.878 372.989 108.754 372.859C100.808 364.11 88.1334 358.373 70.0051 355.333C69.6781 355.278 69.4571 354.944 69.5013 354.582C69.5543 354.221 69.8549 353.971 70.1819 354.036H70.1907ZM138.355 373.054C138.505 373.054 138.656 372.989 138.779 372.859C146.725 364.11 159.4 358.373 177.528 355.333C177.856 355.278 178.076 354.944 178.032 354.582C177.988 354.221 177.679 353.98 177.352 354.036C158.958 357.122 146.071 362.979 137.94 371.932C137.71 372.192 137.71 372.609 137.94 372.859C138.055 372.989 138.205 373.054 138.364 373.054H138.355ZM230.764 331.152C222.04 336.88 208.57 343.081 208.438 343.136L208.314 342.803C208.491 345.129 208.667 347.437 208.853 349.68C210.515 370.264 208.473 402.026 208.438 402.601L210.117 403.991V404.316C210.117 405.66 210.196 437.246 216.711 451.426C216.826 451.583 216.887 451.676 216.905 451.695C221.634 457.191 223.296 462.168 223.366 462.381L223.437 462.594L221.183 470.426H126.175L126.096 469.87C125.194 463.512 128.898 453.307 131.364 448.97C131.381 448.905 131.39 448.84 131.426 448.784C131.549 448.562 131.682 448.349 131.814 448.126C133.909 441.342 133.573 406.54 133.573 406.179V405.743L133.936 405.567C133.945 405.567 134.068 405.502 134.289 405.4C134.086 403.565 133.07 394.528 131.947 388.652C130.992 383.61 125.963 378.652 123.939 376.835C122.463 378.105 116.948 383.166 115.905 388.652C114.791 394.528 113.766 403.565 113.562 405.4C113.783 405.511 113.907 405.567 113.916 405.567L114.287 405.743V406.179C114.287 406.531 113.943 441.157 116.02 448.071C116.152 448.312 116.302 448.534 116.435 448.784C116.479 448.859 116.506 448.942 116.515 449.025C118.981 453.4 122.64 463.539 121.747 469.87L121.668 470.426H26.6599L24.406 462.594L24.4767 462.381C24.5475 462.168 26.2356 457.126 31.0263 451.583C31.0439 451.556 31.0793 451.519 31.1058 451.472C37.6376 437.31 37.7172 405.66 37.7172 404.316V403.991L39.4142 402.62H39.3965C39.3789 402.304 37.3106 370.357 38.9723 349.689C39.1579 347.446 39.3347 345.138 39.5114 342.812L39.3877 343.145C39.2551 343.081 25.7849 336.88 17.061 331.162C7.06441 324.609 -1.73014 308.992 1.63742 292.967C5.21711 275.942 26.7041 260.594 33.7663 255.552L33.9165 255.44C40.5102 251.158 45.9372 248.99 47.5459 248.387C47.979 247.006 48.4297 245.774 48.8982 244.726L49.0573 244.374H49.4197C49.4816 244.365 50.5952 244.337 52.5751 244.291C48.6772 240.926 33.3155 225.968 25.9882 194.558C25.7584 194.576 25.5286 194.604 25.2987 194.604C23.1863 194.604 21.0738 193.659 19.1381 191.833C12.456 185.53 8.30183 169.431 7.4268 146.502C6.62247 125.509 15.2314 85.2113 20.4286 63.0602C27.4377 33.1888 35.2865 6.18126 37.1073 3.72519C40.6782 -1.07574 46.9979 0.750092 47.263 0.833506L47.3514 0.870578L58.0463 6.2276L57.9756 6.71882C57.8784 7.37686 48.6772 71.0402 48.1027 87.3429C65.8244 68.3802 91.7573 58.2871 123.4 58.074C123.568 58.0647 123.736 58.074 123.913 58.074C124.081 58.074 124.249 58.074 124.425 58.074C156.068 58.2964 182.001 68.3895 199.723 87.3522C199.139 71.0494 189.947 7.38613 189.85 6.72809L189.779 6.23687L200.571 0.842774C200.836 0.75936 207.156 -1.06648 210.727 3.73445C212.548 6.19053 220.396 33.1981 227.406 63.0602C232.603 85.2113 241.212 125.5 240.407 146.502C239.532 169.441 235.369 185.54 228.696 191.833C226.76 193.659 224.648 194.604 222.535 194.604C222.306 194.604 222.076 194.585 221.846 194.558C214.519 225.977 199.157 240.926 195.259 244.291C197.239 244.337 198.353 244.365 198.414 244.365H198.777L198.936 244.726C199.413 245.774 199.864 246.997 200.288 248.387C201.897 248.99 207.324 251.159 213.891 255.422L214.059 255.542C221.121 260.584 242.608 275.932 246.188 292.967C249.555 308.992 240.761 324.609 230.764 331.162V331.152ZM217.718 259.769C218.063 264.607 218.797 285.312 207.271 298.093C207.236 298.13 207.191 298.158 207.147 298.185C207.333 300.929 207.43 302.708 207.448 303.051L207.483 303.709C209.304 305.72 211.505 307.426 213.361 308.696C213.378 308.696 213.387 308.677 213.405 308.677C233 305.785 240.619 290.168 241.751 284.923C241.751 284.895 241.777 284.867 241.786 284.839C236.014 274.329 224.851 265.107 217.718 259.769ZM200.739 249.944C204.257 262.595 206.228 285.256 207.023 296.462C218.965 282.365 216.472 259.129 216.445 258.888C216.445 258.87 216.445 258.851 216.445 258.823C215.27 257.961 214.236 257.22 213.405 256.627L213.255 256.525C207.66 252.892 202.922 250.816 200.739 249.944ZM166.347 245.06V268.295H175.389C176.194 268.295 176.848 269.018 176.848 269.899V275.886C176.848 276.767 176.194 277.489 175.389 277.489H166.259V323.441H174.382C175.619 322.283 183.503 314.989 190.946 309.196C197.301 304.247 203.161 302.921 205.618 302.56C205.636 302.532 205.645 302.504 205.671 302.486C205.83 302.338 206.033 302.31 206.21 302.365C205.857 296.508 203.382 258.128 198.008 245.653C195.745 245.598 183.185 245.301 166.347 245.06ZM175.389 276.173C175.531 276.173 175.655 276.044 175.655 275.886V269.899C175.655 269.741 175.54 269.612 175.389 269.612H160.699C160.558 269.612 160.434 269.741 160.434 269.899V275.886C160.434 276.044 160.549 276.173 160.699 276.173H175.389ZM224.038 172.138C220.361 166.734 208.349 164.992 205.689 164.797C205.689 164.862 205.689 164.927 205.689 164.992C206.52 211.861 178.183 238.498 171.881 243.827C181.479 243.976 189.249 244.142 193.845 244.244L193.659 243.948C193.933 243.744 220.007 223.836 224.038 172.138ZM202.586 1.80667C232.072 94.7297 225.682 146.409 225.39 148.569C225.373 148.708 225.311 148.828 225.222 148.921C225.735 154.955 225.85 161.164 225.532 167.504C225.054 177.087 223.817 185.632 222.12 193.251C224.073 193.381 226.071 192.556 227.909 190.822C231.63 187.31 238.047 176.883 239.205 146.428C240.584 110.291 213.06 8.95245 209.79 4.55006C207.748 1.80667 204.54 1.60277 202.577 1.7974L202.586 1.80667ZM200.951 88.3717C200.951 88.4644 200.933 88.5478 200.907 88.6312C201.296 89.0668 201.694 89.5024 202.083 89.9566C214.253 104.118 221.97 122.627 224.657 143.527C225.629 128.559 226.124 79.8172 201.384 1.99203C201.163 2.03837 201.004 2.07545 200.933 2.09398L191.114 7.0154C191.997 13.1788 200.783 74.5436 200.96 88.381L200.951 88.3717ZM46.6266 90.8556C30.1954 109.976 21.9842 137.169 23.4956 167.439C23.5398 168.254 23.6017 169.033 23.6547 169.839C25.6965 168.06 31.1235 164.445 42.3487 163.5C42.3752 163.5 42.4017 163.509 42.4282 163.509C42.9055 125.37 58.2761 106.732 63.9152 104.248C68.0341 102.432 92.3848 96.0458 123.754 95.9624C123.754 95.9624 123.762 95.9624 123.771 95.9624C123.868 95.9624 123.966 95.9624 124.063 95.9624C124.16 95.9624 124.257 95.9624 124.355 95.9624C124.355 95.9624 124.363 95.9624 124.372 95.9624C155.741 96.0458 180.092 102.432 184.211 104.248C189.85 106.732 205.203 125.352 205.698 163.491C208.34 163.657 219.459 165.15 224.188 170.312C224.25 169.357 224.33 168.412 224.374 167.43C225.885 137.16 217.665 109.967 201.243 90.8463C183.636 70.3636 156.917 59.492 123.948 59.3808C90.9795 59.492 64.2599 70.3636 46.6532 90.8463L46.6266 90.8556ZM46.4587 1.98276C21.7279 79.8079 22.2229 128.549 23.1863 143.518C25.8733 122.627 33.5895 104.109 45.7604 89.9473C46.1493 89.5024 46.5382 89.0668 46.936 88.622C46.9095 88.5386 46.8918 88.4551 46.8918 88.3624C47.0686 74.525 55.8543 13.1602 56.7382 6.99686L46.9183 2.07545C46.8476 2.05691 46.6885 2.01984 46.4675 1.9735L46.4587 1.98276ZM25.7142 193.251C24.2558 186.707 23.1509 179.478 22.5587 171.498C22.5145 171.369 22.5057 171.239 22.5322 171.1C22.4438 169.913 22.3554 168.727 22.3024 167.504C21.9842 161.164 22.0991 154.955 22.6118 148.921C22.5322 148.828 22.4615 148.708 22.4438 148.569C22.161 146.409 15.7617 94.7297 45.2478 1.80667C43.2856 1.6213 40.0683 1.8252 38.0354 4.55932C34.765 8.96172 7.25002 110.3 8.62887 146.437C9.78674 176.883 16.2037 187.319 19.9248 190.832C21.7632 192.565 23.7608 193.39 25.7142 193.26V193.251ZM54.1749 243.948L53.9982 244.244C58.6297 244.142 66.4961 243.976 76.2099 243.827C69.8902 238.48 41.5709 211.852 42.4017 164.983C42.4017 164.918 42.4017 164.862 42.4017 164.807C29.833 165.872 24.7596 170.423 23.752 171.47C27.6145 223.715 53.9009 243.753 54.1749 243.957V243.948ZM31.5301 258.888C31.5035 259.12 29.0287 282.198 40.8284 296.313C41.6327 285.062 43.5949 262.531 47.1039 249.944C44.9119 250.825 40.1655 252.91 34.5617 256.543L34.438 256.636C33.6425 257.201 32.6526 257.915 31.5212 258.74C31.5212 258.786 31.5389 258.842 31.5301 258.897V258.888ZM6.13634 284.7C6.18053 284.765 6.20705 284.839 6.22473 284.923C7.34725 290.159 14.9574 305.758 34.5176 308.668C36.3649 307.407 38.548 305.702 40.36 303.709L40.3953 303.06C40.413 302.718 40.5102 300.901 40.7047 298.102C29.0906 285.219 29.9214 264.301 30.2661 259.676C23.1774 264.968 11.9611 274.19 6.13634 284.709V284.7ZM41.4736 313.45C41.509 313.395 41.5532 313.357 41.5886 313.32C41.8979 308.584 42.11 305.155 42.1807 303.904C42.0658 303.885 41.9686 303.876 41.8714 303.858C37.7879 308.816 31.3621 312.106 31.0881 312.245C31.0086 312.282 30.9202 312.301 30.8406 312.301C30.6197 312.301 30.3987 312.162 30.3015 311.921C30.1601 311.587 30.3015 311.198 30.5932 311.05C30.6197 311.04 31.5477 310.558 32.9001 309.724C14.8513 306.369 7.1086 292.309 5.33202 286.248C4.19182 288.537 3.31678 290.891 2.82181 293.264C-0.545751 309.279 8.48745 322.839 15.9474 328.761C16.0092 328.733 16.0799 328.706 16.1506 328.706C31.8129 327.955 39.5026 316.842 41.4825 313.459L41.4736 313.45ZM39.6087 341.811C40.3069 332.524 40.9522 323.033 41.4295 315.804C38.4066 320.234 30.9113 328.752 17.5295 329.92C17.5825 329.957 17.6355 329.994 17.6886 330.031C25.6876 335.277 37.7349 340.94 39.6087 341.82V341.811ZM113.085 406.605C111.485 405.826 104.971 402.518 98.9432 397.856C92.6058 392.953 84.7835 384.176 83.5107 382.73H67.9545C56.8796 396.753 42.1896 402.545 40.8461 403.055L38.9193 404.649C38.9104 408.913 38.6099 433.381 33.7132 448.126C36.9924 444.132 42.9144 437.635 49.9942 433.205C60.3179 426.698 71.1895 427.421 71.6491 427.458C71.9762 427.486 72.2236 427.792 72.206 428.153C72.1795 428.515 71.9143 428.784 71.5696 428.765C71.4635 428.756 60.583 428.033 50.5864 434.345C40.961 440.378 33.4923 450.314 32.1223 452.195L32.025 452.353C32.025 452.353 31.972 452.418 31.9366 452.455C31.919 452.482 31.9101 452.501 31.9013 452.501C31.9013 452.51 31.8836 452.52 31.8748 452.529C27.8001 457.256 26.0412 461.658 25.6788 462.631L26.0854 464.058C27.7294 465.504 30.8848 465.393 31.7245 465.439C32.6084 465.486 112.201 465.439 120.554 465.439C119.873 459.165 116.727 451.574 115.056 448.979L114.986 448.84C114.968 448.784 114.95 448.71 114.924 448.645C108.038 436.699 95.7524 429.822 80.1785 429.284C79.8515 429.275 79.5952 428.969 79.604 428.608C79.6128 428.255 79.878 427.968 80.1962 427.968C80.1962 427.968 80.205 427.968 80.2139 427.968C95.0099 428.478 106.933 434.604 114.261 445.29C112.882 434.956 113.032 410.349 113.067 406.605H113.085ZM123.356 324.757H73.028L72.86 324.6C72.7717 324.516 64.2334 316.509 56.2167 310.271C51.0548 306.258 46.167 304.71 43.374 304.117C43.1177 308.269 41.7035 331.041 40.192 349.8C38.6718 368.624 40.2716 396.892 40.5633 401.776C42.2603 401.127 56.526 395.344 67.2386 381.646L67.4154 381.414H84.0234L84.2001 381.618C84.2885 381.72 92.8444 391.516 99.6326 396.771C104.609 400.627 109.912 403.528 112.431 404.816C112.714 402.286 113.686 393.935 114.738 388.365C115.922 382.146 122.057 376.733 123.356 375.649V324.739V324.757ZM125.097 243.429C141.016 243.429 156.987 243.605 169.936 243.8C169.954 243.781 169.962 243.762 169.989 243.744C170.343 243.484 205.424 216.746 204.504 165.011C204.407 123.331 187.145 106.964 183.751 105.472C179.667 103.674 155.396 97.3248 124.054 97.2785C92.7119 97.3155 68.4407 103.664 64.3572 105.472C60.9631 106.964 43.701 123.331 43.6038 165.001C42.6846 216.755 77.7655 243.484 78.1191 243.753C78.1368 243.772 78.1456 243.79 78.1633 243.809C91.0767 243.614 106.942 243.438 122.755 243.438H125.097V243.429ZM122.755 244.745C88.3809 244.745 53.7418 245.57 49.8351 245.662C44.4611 258.128 41.9863 296.517 41.6327 302.375C41.8184 302.319 42.0217 302.347 42.1719 302.495C42.1984 302.514 42.2073 302.541 42.2249 302.569C44.6821 302.921 50.551 304.256 56.8973 309.205C64.3395 314.998 72.2236 322.292 73.4611 323.451H165.066V277.499H160.699C159.895 277.499 159.241 276.776 159.241 275.895V269.908C159.241 269.028 159.895 268.305 160.699 268.305H165.154V245.051C153.151 244.884 139.098 244.745 125.088 244.745H122.746H122.755ZM135.43 404.835C137.949 403.546 143.252 400.636 148.228 396.79C155.016 391.535 163.572 381.729 163.66 381.636L163.837 381.432H180.445L180.622 381.664C191.326 395.363 205.6 401.137 207.297 401.795C207.598 396.91 209.189 368.642 207.669 349.819C206.157 331.06 204.743 308.288 204.487 304.136C201.694 304.729 196.797 306.277 191.644 310.29C183.627 316.536 175.08 324.535 175.001 324.618L174.833 324.776H124.558V375.695C126.555 377.475 132.062 382.804 133.123 388.393C134.183 393.954 135.147 402.304 135.43 404.844V404.835ZM207.006 403.064C205.671 402.555 190.972 396.762 179.897 382.739H164.341C163.068 384.185 155.246 392.953 148.909 397.865C142.889 402.527 136.366 405.826 134.767 406.614C134.802 410.368 134.952 435.012 133.573 445.337C140.892 434.632 152.824 428.496 167.638 427.987C167.638 427.987 167.647 427.987 167.656 427.987C167.974 427.987 168.239 428.265 168.248 428.626C168.257 428.988 168 429.293 167.673 429.303C152.073 429.84 139.769 436.736 132.893 448.72C132.875 448.766 132.866 448.822 132.849 448.859L132.778 448.998C131.116 451.593 127.97 459.183 127.28 465.458C136.26 465.458 215.102 465.504 215.986 465.458C216.861 465.412 220.211 465.541 221.793 463.929L222.164 462.65C221.802 461.658 219.999 457.154 215.818 452.371L215.721 452.214C215.721 452.214 215.703 452.177 215.694 452.158C214.245 450.175 206.82 440.341 197.265 434.363C187.269 428.052 176.397 428.774 176.282 428.784C175.929 428.802 175.672 428.533 175.646 428.172C175.619 427.811 175.876 427.495 176.203 427.477C176.662 427.449 187.534 426.717 197.858 433.223C204.911 437.644 210.824 444.113 214.112 448.117C209.224 433.371 208.933 408.931 208.924 404.668L206.997 403.074L207.006 403.064ZM230.34 329.92C216.808 328.696 209.33 319.947 206.413 315.6C206.891 322.857 207.536 332.45 208.252 341.829C210.126 340.958 222.173 335.295 230.172 330.04C230.225 330.003 230.287 329.957 230.34 329.92ZM245.039 293.264C244.553 290.947 243.704 288.658 242.608 286.415C240.726 292.587 232.93 306.453 214.978 309.743C216.313 310.568 217.232 311.04 217.259 311.05C217.559 311.198 217.692 311.587 217.55 311.921C217.453 312.162 217.232 312.301 217.011 312.301C216.932 312.301 216.843 312.282 216.764 312.245C216.481 312.106 210.064 308.816 205.98 303.858C205.883 303.867 205.786 303.885 205.671 303.904C205.751 305.146 205.954 308.547 206.263 313.228C206.36 313.274 206.458 313.348 206.52 313.459C208.499 316.842 216.189 327.955 231.851 328.706C231.887 328.706 231.922 328.724 231.949 328.733C239.4 322.802 248.406 309.252 245.039 293.264ZM146.982 254.004C146.681 253.856 146.328 254.004 146.195 254.328C146.063 254.662 146.195 255.051 146.496 255.199C146.54 255.218 150.526 257.285 151.056 264.078C151.083 264.421 151.339 264.681 151.649 264.681C151.666 264.681 151.684 264.681 151.702 264.681C152.029 264.653 152.276 264.329 152.25 263.967C151.666 256.414 147.185 254.097 146.991 254.004H146.982ZM101.126 255.199C101.427 255.051 101.559 254.662 101.427 254.328C101.294 253.995 100.941 253.846 100.64 254.004C100.446 254.097 95.9645 256.414 95.3812 263.967C95.3546 264.329 95.5933 264.644 95.9292 264.681C95.9468 264.681 95.9645 264.681 95.9822 264.681C96.2915 264.681 96.5479 264.421 96.5744 264.078C97.0959 257.331 100.958 255.283 101.135 255.199H101.126ZM141.785 276.859V286.785C141.785 297.602 133.794 306.397 123.975 306.397C114.155 306.397 106.164 297.602 106.164 286.785V276.859C106.164 266.043 114.155 257.238 123.975 257.238C133.794 257.238 141.785 266.034 141.785 276.859ZM139.363 276.924C139.363 267.582 132.46 259.973 123.975 259.973C115.489 259.973 108.586 267.572 108.586 276.924V283.227C108.586 292.569 115.489 300.178 123.975 300.178C132.46 300.178 139.363 292.578 139.363 283.227V276.924ZM104.45 313.089C101.922 312.097 99.0051 308.77 98.5808 304.571C98.5454 304.21 98.2449 303.941 97.9267 303.987C97.5997 304.024 97.361 304.349 97.3964 304.71C97.8737 309.493 101.109 313.163 104.052 314.321C104.123 314.349 104.185 314.358 104.255 314.358C104.503 314.358 104.733 314.192 104.812 313.923C104.927 313.58 104.759 313.209 104.45 313.079V313.089ZM147.15 286.572C147.15 300.651 136.755 312.097 123.975 312.097C111.194 312.097 100.799 300.651 100.799 286.572V278.231C100.799 264.153 111.194 252.706 123.975 252.706C136.755 252.706 147.15 264.153 147.15 278.231V286.572ZM145.956 278.231C145.956 264.875 136.092 254.013 123.975 254.013C111.857 254.013 101.993 264.875 101.993 278.231V286.572C101.993 299.928 111.857 310.79 123.975 310.79C136.092 310.79 145.956 299.928 145.956 286.572V278.231ZM149.704 303.997C149.386 303.95 149.085 304.219 149.05 304.58C148.626 308.779 145.709 312.097 143.181 313.098C142.872 313.218 142.713 313.598 142.819 313.941C142.907 314.21 143.137 314.377 143.376 314.377C143.446 314.377 143.508 314.368 143.579 314.34C146.522 313.181 149.757 309.511 150.234 304.729C150.27 304.367 150.031 304.043 149.704 304.006V303.997Z" fill="#1A2752"/>
<path d="M80.8695 118.339C84.8146 115.511 86.5476 110.971 84.7403 108.199C82.933 105.427 78.2697 105.473 74.3246 108.301C70.3795 111.13 68.6465 115.669 70.4539 118.441C72.2612 121.213 76.9244 121.168 80.8695 118.339Z" fill="white"/>
<path d="M64.6935 130.982C66.3341 128.998 66.6386 126.457 65.3736 125.307C64.1086 124.157 61.7531 124.833 60.1125 126.817C58.4719 128.8 58.1675 131.341 59.4324 132.491C60.6974 133.642 63.0529 132.966 64.6935 130.982Z" fill="white"/>
<path d="M213.414 286.646C217.48 276.525 217.55 261.78 217.55 261.78C217.55 261.78 220.007 263.244 223.79 266.488C227.573 269.732 238.657 281.938 238.657 281.938C238.657 281.938 240.266 284.876 239.638 286.414C239.011 287.962 234.45 293.597 234.45 293.597C234.45 293.597 238.233 287.805 237.676 285.488C237.119 283.171 222.252 268.267 221.271 269.342C220.308 270.408 216.702 291.197 207.81 296.841C208.632 296.146 210.506 293.894 213.423 286.646H213.414ZM207.801 296.841C207.642 296.943 207.474 297.054 207.315 297.147C207.315 297.147 207.483 297.119 207.801 296.841ZM210.957 261.075C212.221 262.929 212.079 263.466 212.221 269.574C212.362 275.673 210.188 286.414 210.188 286.414C210.188 286.414 210.683 285.877 212.715 279.695C214.748 273.513 214.395 261.928 214.05 260.927C213.697 259.926 207.527 254.282 201.004 252.66L201.844 255.746C201.844 255.746 209.701 259.222 210.957 261.075ZM218.956 308.426C218.275 308.528 217.594 308.603 216.896 308.649C216.896 308.649 216.808 309.205 218.956 308.426ZM241.671 288.361C241.671 288.361 239.055 297.731 227.83 304.015C223.163 306.628 220.485 307.87 218.956 308.426C231.825 306.573 240.301 296.007 241.017 296.396C241.768 296.804 243.448 302.782 240.549 311.531C237.65 320.28 233.725 325.434 233.725 325.434C233.725 325.434 241.203 317.917 243.545 308.232C245.878 298.556 241.671 288.361 241.671 288.361ZM211.849 320.8C211.849 320.8 209.136 317.713 209.604 319.048C210.073 320.382 218.956 328.52 219.424 329.864C219.893 331.198 208.208 337.482 207.554 337.686C206.9 337.89 207.651 340.467 208.11 340.467C208.57 340.467 228.493 329.966 228.678 329.651C228.864 329.336 218.204 327.695 211.849 320.79V320.8ZM40.0771 296.832C40.4041 297.11 40.5632 297.138 40.5632 297.138C40.3953 297.045 40.2362 296.934 40.0771 296.832ZM13.4283 293.588C13.4283 293.588 9.64529 287.795 10.2021 285.478C10.759 283.161 25.6257 268.258 26.6068 269.333C27.5879 270.408 31.1765 291.188 40.0683 296.832C39.2463 296.137 37.3724 293.885 34.4557 286.637C30.3898 276.516 30.3191 261.77 30.3191 261.77C30.3191 261.77 27.8619 263.235 24.079 266.479C20.296 269.722 9.21219 281.929 9.21219 281.929C9.21219 281.929 7.60354 284.867 8.23109 286.405C8.85864 287.944 13.4194 293.588 13.4194 293.588H13.4283ZM33.8369 260.918C33.4834 261.919 33.1387 273.504 35.1716 279.686C37.2045 285.868 37.6995 286.405 37.6995 286.405C37.6995 286.405 35.5251 275.673 35.6666 269.565C35.808 263.466 35.6666 262.92 36.9305 261.066C38.1944 259.212 46.0432 255.737 46.0432 255.737L46.8829 252.65C40.3599 254.272 34.1905 259.907 33.8369 260.918ZM30.982 308.649C30.2838 308.603 29.5943 308.519 28.9226 308.426C31.0792 309.205 30.982 308.649 30.982 308.649ZM6.86108 296.396C7.56818 296.007 16.0534 306.573 28.9226 308.426C27.3847 307.87 24.7154 306.628 20.0485 304.015C8.83212 297.731 6.20702 288.361 6.20702 288.361C6.20702 288.361 1.99977 298.556 4.3332 308.232C6.66663 317.908 14.153 325.434 14.153 325.434C14.153 325.434 10.2286 320.28 7.32954 311.531C4.43043 302.782 6.10979 296.804 6.86108 296.396ZM40.3334 337.695C39.6793 337.492 27.9945 331.208 28.463 329.873C28.9314 328.538 37.8144 320.401 38.2828 319.057C38.7513 317.722 36.0378 320.809 36.0378 320.809C29.6827 327.704 19.0232 329.354 19.2088 329.669C19.3944 329.975 39.3081 340.485 39.7766 340.485C40.245 340.485 40.9963 337.909 40.3334 337.705V337.695Z" fill="#1A2752"/>
<path d="M144.153 234.169C142.006 231.964 138.072 231.194 132.698 231.194C128.465 231.194 119.378 231.194 115.313 231.194C109.939 231.194 106.005 231.973 103.858 234.169C101.71 236.375 101.056 239.916 101.056 239.916C101.71 240.092 103.584 239.786 103.716 239.916C103.858 240.045 105.068 237.84 105.307 237.84C105.546 237.84 105.82 237.626 105.82 238.053C105.82 238.479 105.121 239.823 105.121 239.953C105.121 240.083 108.109 239.953 108.109 239.953C108.109 239.953 110.168 236.625 111.989 236.283C113.554 235.986 123.232 236.283 123.232 236.283H123.771C123.771 236.283 134.44 235.986 136.022 236.283C137.843 236.625 139.902 239.953 139.902 239.953C139.902 239.953 142.889 240.083 142.889 239.953C142.889 239.823 142.191 238.488 142.191 238.053C142.191 237.617 142.474 237.84 142.704 237.84C142.934 237.84 144.153 240.045 144.295 239.916C144.436 239.786 146.301 240.092 146.955 239.916C146.955 239.916 146.301 236.375 144.153 234.169Z" fill="#1455A2"/>
<g filter="url(#filter0_d_1422_10295)">
<path d="M123.957 259.973C115.472 259.973 108.569 267.573 108.569 276.924V283.227C108.569 286.767 109.559 290.057 111.256 292.773C113.518 294.154 116.356 295.183 119.944 295.702C137.056 294.497 137.878 275.923 136.8 267.61C134.042 263.022 129.322 259.982 123.957 259.982V259.973Z" fill="#70CDE0"/>
</g>
<path d="M118.813 268.963C115.587 270.891 114.252 275.525 113.2 274.681C112.148 273.829 114.393 265.339 121.058 263.634C121.058 263.634 124.001 262.707 124.637 264.329C125.265 265.951 122.039 267.035 118.822 268.963H118.813ZM112.997 279.316C110.893 279.316 110.822 285.572 113.138 285.266C115.454 284.96 115.1 279.316 112.997 279.316Z" fill="white"/>
<path d="M109.055 291.845C110.681 297.731 114.243 304.645 123.7 304.988C134.546 305.155 139.045 294.663 139.274 290.566C137.224 296.285 131.629 303.338 123.568 303.088C113.571 302.661 109.055 291.855 109.055 291.855V291.845Z" fill="#2EC1DD"/>
<g filter="url(#filter1_d_1422_10295)">
<path d="M70.4824 170.562C78.1456 171.795 96.7512 170.562 96.7512 170.562C96.7512 170.562 98.899 141.108 82.5385 140.904C64.7726 140.598 70.4736 170.562 70.4736 170.562H70.4824Z" fill="#72CCDE"/>
<path d="M177.502 170.562C169.839 171.795 151.233 170.562 151.233 170.562C151.233 170.562 149.085 141.108 165.446 140.904C183.212 140.598 177.511 170.562 177.511 170.562H177.502Z" fill="#72CCDE"/>
<path d="M139.221 199.256H107.95C106.96 199.256 106.164 198.375 106.164 197.282C106.164 196.188 106.969 195.308 107.95 195.308H139.221C140.211 195.308 141.007 196.188 141.007 197.282C141.007 198.375 140.202 199.256 139.221 199.256Z" fill="#72CCDE"/>
</g>
<path d="M85.8618 86.5274C92.8709 87.7601 104.794 84.5162 104.794 84.5162C104.794 84.5162 110.195 56.7116 110.053 54.7004C109.912 52.6892 101.851 50.0663 92.8709 51.6141C83.8908 53.1619 79.6216 57.8702 79.4802 59.7238C79.3388 61.5774 82.6357 84.6738 85.8618 86.5274Z" fill="#BEE4EF" stroke="#1A2752" stroke-width="1.42" stroke-miterlimit="10" stroke-linecap="round"/>
<path d="M162.29 86.5274C155.281 87.7601 143.358 84.5162 143.358 84.5162C143.358 84.5162 137.957 56.7116 138.099 54.7004C138.24 52.6892 146.301 50.0663 155.281 51.6141C164.253 53.1619 168.531 57.8702 168.672 59.7238C168.813 61.5774 165.517 84.6738 162.29 86.5274Z" fill="#BEE4EF" stroke="#1A2752" stroke-width="1.42" stroke-miterlimit="10" stroke-linecap="round"/>
</g>
<defs>
<filter id="filter0_d_1422_10295" x="98.4886" y="249.893" width="48.7055" height="55.8885" filterUnits="userSpaceOnUse" color-interpolation-filters="sRGB">
<feFlood flood-opacity="0" result="BackgroundImageFix"/>
<feColorMatrix in="SourceAlpha" type="matrix" values="0 0 0 0 0 0 0 0 0 0 0 0 0 0 0 0 0 0 127 0" result="hardAlpha"/>
<feOffset/>
<feGaussianBlur stdDeviation="5.04"/>
<feColorMatrix type="matrix" values="0 0 0 0 0.180392 0 0 0 0 0.760784 0 0 0 0 0.862745 0 0 0 1 0"/>
<feBlend mode="normal" in2="BackgroundImageFix" result="effect1_dropShadow_1422_10295"/>
<feBlend mode="normal" in="SourceGraphic" in2="effect1_dropShadow_1422_10295" result="shape"/>
</filter>
<filter id="filter1_d_1422_10295" x="62.4024" y="133.701" width="123.18" height="72.7545" filterUnits="userSpaceOnUse" color-interpolation-filters="sRGB">
<feFlood flood-opacity="0" result="BackgroundImageFix"/>
<feColorMatrix in="SourceAlpha" type="matrix" values="0 0 0 0 0 0 0 0 0 0 0 0 0 0 0 0 0 0 127 0" result="hardAlpha"/>
<feOffset/>
<feGaussianBlur stdDeviation="3.6"/>
<feColorMatrix type="matrix" values="0 0 0 0 0.180392 0 0 0 0 0.760784 0 0 0 0 0.862745 0 0 0 1 0"/>
<feBlend mode="normal" in2="BackgroundImageFix" result="effect1_dropShadow_1422_10295"/>
<feBlend mode="normal" in="SourceGraphic" in2="effect1_dropShadow_1422_10295" result="shape"/>
</filter>
<clipPath id="clip0_1422_10295">
<rect width="246" height="470" fill="white" transform="translate(0.912598 0.425781)"/>
</clipPath>
</defs>
</svg>
