<svg width="11" height="19" viewBox="0 0 11 19" fill="none" xmlns="http://www.w3.org/2000/svg">
<rect x="1.81852" y="0.0443548" width="9.1371" height="15.3468" rx="0.842742" fill="#44CEEC" stroke="black" stroke-width="0.0887097"/>
<rect x="1.46379" y="0.399198" width="9.1371" height="15.3468" rx="0.842742" fill="#44CEEC" stroke="black" stroke-width="0.0887097"/>
<rect x="1.10881" y="0.754026" width="9.1371" height="15.3468" rx="0.842742" fill="#44CEEC" stroke="black" stroke-width="0.0887097"/>
<rect x="0.754072" y="1.10887" width="9.1371" height="15.3468" rx="0.842742" fill="#44CEEC" stroke="black" stroke-width="0.0887097"/>
<rect x="0.399091" y="1.46371" width="9.1371" height="15.3468" rx="0.842742" fill="#44CEEC" stroke="black" stroke-width="0.0887097"/>
<rect x="0.0443548" y="1.81856" width="9.1371" height="15.3468" rx="0.842742" fill="#44CEEC" stroke="black" stroke-width="0.0887097"/>
<path d="M4.37305 11.745H3.54139C3.54601 11.3523 3.58529 11.0196 3.65921 10.747C3.73314 10.4744 3.85326 10.2226 4.01959 9.99159C4.18593 9.76057 4.41001 9.50646 4.69185 9.22924C4.93672 8.98436 5.15388 8.75797 5.34331 8.55005C5.53274 8.33752 5.68059 8.1042 5.78686 7.85008C5.89774 7.59596 5.95319 7.28409 5.95319 6.91447C5.95319 6.54947 5.8885 6.22836 5.75914 5.95114C5.62977 5.67392 5.43572 5.45677 5.17698 5.29968C4.91824 5.14259 4.59482 5.06404 4.20672 5.06404C3.85095 5.06404 3.53215 5.13335 3.25032 5.27195C2.9731 5.41056 2.75363 5.61155 2.59192 5.8749C2.43483 6.13364 2.35167 6.44782 2.34243 6.81744H1.5177C1.52694 6.29073 1.65169 5.84256 1.89195 5.47294C2.13682 5.09869 2.46024 4.81455 2.86221 4.62049C3.2688 4.42182 3.71697 4.32248 4.20672 4.32248C4.76115 4.32248 5.2278 4.43106 5.60667 4.64821C5.99015 4.86537 6.28123 5.168 6.4799 5.5561C6.6832 5.94421 6.78484 6.39469 6.78484 6.90754C6.78484 7.31875 6.71554 7.69068 6.57693 8.02334C6.43832 8.35138 6.24658 8.66094 6.0017 8.95202C5.75683 9.2431 5.47268 9.53649 5.14926 9.83219C4.85356 10.0863 4.65026 10.3774 4.53938 10.7054C4.42849 11.0288 4.37305 11.3754 4.37305 11.745ZM3.43051 14.0598C3.43051 13.9027 3.48133 13.771 3.58298 13.6647C3.68462 13.5538 3.82323 13.4984 3.9988 13.4984C4.17437 13.4984 4.31298 13.5538 4.41463 13.6647C4.5209 13.771 4.57403 13.9027 4.57403 14.0598C4.57403 14.2122 4.5209 14.3439 4.41463 14.4548C4.31298 14.5611 4.17437 14.6142 3.9988 14.6142C3.82323 14.6142 3.68462 14.5611 3.58298 14.4548C3.48133 14.3439 3.43051 14.2122 3.43051 14.0598Z" fill="black"/>
</svg>
