<svg width="24" height="24" viewBox="0 0 24 24" fill="none" xmlns="http://www.w3.org/2000/svg">
<path d="M19.4165 23.1038L12.0032 19.204L4.58349 23.1038L6.00158 14.8421L0 8.9988L8.29333 7.78962L12.0032 0.281311L15.7067 7.79595L24 8.9988L17.9984 14.8421L19.4165 23.1038Z" fill="#F2F2F2"/>
<path d="M12.0032 1.32589L15.2952 7.99854L15.4028 8.21378L15.6434 8.25177L23.0061 9.32167L17.6756 14.5129L17.5046 14.6838L17.5426 14.9244L18.8088 22.2555L12.1994 18.7925L11.9842 18.6786L11.7689 18.7925L5.19757 22.2555L6.46373 14.9244L6.50805 14.6838L6.33078 14.5129L1.00659 9.32167L8.36297 8.25177L8.60987 8.21378L8.71749 7.99854L12.0095 1.32589M12.0095 0.281311L8.29333 7.79595L0 8.9988L6.00158 14.8421L4.60248 23.1038L12.0032 19.1914L19.4165 23.1038L17.9984 14.8738L24 9.03046L15.7067 7.79595L12.0032 0.281311H12.0095Z" fill="black"/>
<path d="M11.9149 7.29589C13.0268 7.29589 14.1137 7.6256 15.0382 8.24332C15.9627 8.86105 16.6833 9.73904 17.1087 10.7663C17.5342 11.7935 17.6456 12.9239 17.4287 14.0144C17.2117 15.1049 16.6763 16.1066 15.8901 16.8928C15.1039 17.679 14.1022 18.2144 13.0117 18.4313C11.9212 18.6483 10.7908 18.5369 9.7636 18.1114C8.73636 17.6859 7.85836 16.9654 7.24064 16.0409C6.62291 15.1164 6.2932 14.0295 6.2932 12.9176C6.2932 11.4266 6.88549 9.99674 7.93977 8.94246C8.99405 7.88818 10.424 7.29589 11.9149 7.29589ZM11.9149 6.83374C10.7117 6.83374 9.53541 7.19055 8.53492 7.85906C7.53443 8.52757 6.75464 9.47774 6.29417 10.5894C5.83369 11.7011 5.71321 12.9244 5.94796 14.1045C6.18271 15.2847 6.76214 16.3687 7.61299 17.2196C8.46383 18.0704 9.54788 18.6499 10.728 18.8846C11.9082 19.1194 13.1315 18.9989 14.2431 18.5384C15.3548 18.0779 16.305 17.2981 16.9735 16.2976C17.642 15.2972 17.9988 14.1209 17.9988 12.9176C17.9971 11.3046 17.3556 9.75811 16.215 8.61752C15.0745 7.47693 13.528 6.83542 11.9149 6.83374Z" fill="black"/>
<path d="M11.6915 15.3858H10.9125C10.9168 15.018 10.9536 14.7064 11.0228 14.451C11.0921 14.1957 11.2046 13.9598 11.3604 13.7435C11.5162 13.5271 11.7261 13.289 11.9901 13.0294C12.2195 12.8 12.4229 12.588 12.6003 12.3932C12.7777 12.1941 12.9162 11.9756 13.0157 11.7376C13.1196 11.4995 13.1715 11.2074 13.1715 10.8612C13.1715 10.5193 13.111 10.2186 12.9898 9.95889C12.8686 9.69923 12.6868 9.49583 12.4445 9.34869C12.2021 9.20155 11.8992 9.12798 11.5357 9.12798C11.2024 9.12798 10.9038 9.19289 10.6398 9.32272C10.3802 9.45255 10.1746 9.64081 10.0232 9.88749C9.87601 10.1298 9.79811 10.4241 9.78946 10.7703H9.01697C9.02562 10.277 9.14247 9.85719 9.36751 9.51098C9.59688 9.16044 9.89982 8.89428 10.2763 8.71252C10.6572 8.52643 11.0769 8.43338 11.5357 8.43338C12.055 8.43338 12.4921 8.53508 12.847 8.73849C13.2062 8.94189 13.4788 9.22535 13.6649 9.58888C13.8553 9.9524 13.9505 10.3744 13.9505 10.8547C13.9505 11.2399 13.8856 11.5883 13.7558 11.8999C13.626 12.2071 13.4464 12.4971 13.217 12.7697C12.9876 13.0424 12.7215 13.3172 12.4185 13.5941C12.1416 13.8322 11.9511 14.1048 11.8473 14.4121C11.7434 14.715 11.6915 15.0396 11.6915 15.3858ZM10.8086 17.554C10.8086 17.4068 10.8562 17.2835 10.9514 17.184C11.0467 17.0801 11.1765 17.0282 11.3409 17.0282C11.5054 17.0282 11.6352 17.0801 11.7304 17.184C11.83 17.2835 11.8797 17.4068 11.8797 17.554C11.8797 17.6968 11.83 17.8201 11.7304 17.924C11.6352 18.0235 11.5054 18.0733 11.3409 18.0733C11.1765 18.0733 11.0467 18.0235 10.9514 17.924C10.8562 17.8201 10.8086 17.6968 10.8086 17.554Z" fill="black"/>
</svg>
